<svg xmlns="http://www.w3.org/2000/svg">
  <symbol id="symbol" viewBox="0 0 512 512">
    <path fill="currentColor" fill-rule="evenodd" clip-rule="evenodd" d="M409 40.3394C370.884 46.8674 338.108 64.3844 318.987 88.4474C303.786 107.575 297.02 121.931 291.858 146.009C289.786 155.67 289.655 158.547 289.865 189.849C290.124 228.576 289.538 233.282 282.767 246.849C277.246 257.91 266.614 268.866 256.757 273.653C242.84 280.411 239.139 280.849 195.997 280.849H157.314L156.657 297.509C156.296 306.672 155.975 338.734 155.944 368.759C155.903 408.321 155.559 424.303 154.694 426.814C154.012 428.794 152.044 431.259 150.102 432.564C147.166 434.539 145.434 434.849 137.352 434.849H128V344.849V254.849L146.75 254.808C206.07 254.679 235.576 253.916 241.425 252.36C249.969 250.086 256.225 246.343 262.534 239.728C272.734 229.034 277.102 215.583 275.131 200.936C273.176 186.406 268.869 177.143 259.226 166.725C243.942 150.214 221.129 139.075 196 135.854C191.325 135.255 186.442 134.612 185.15 134.426C182.855 134.096 182.815 134.221 183.479 139.718C185.413 155.754 192.067 172.637 197 174.025C205.092 176.301 216.996 180.372 220.069 181.914C233.72 188.764 244.067 204.249 240.032 211.79C237.322 216.852 237.376 216.849 160.532 216.849H89V345.397V473.944L124.25 473.615C154.449 473.333 160.241 473.037 164.673 471.552C176.375 467.628 186.435 457.951 191.141 446.089C193.283 440.69 193.44 438.672 193.79 412.099L194.163 383.849H203.436C234.703 383.849 258.395 378.822 278.672 367.885C300.466 356.129 318.872 334.443 326.035 312.08C329.806 300.307 330.975 292.21 330.904 278.349L330.847 267.349L328.978 273.683C319.164 306.952 292.536 331.268 255.155 341.1C244.002 344.033 242.435 344.184 218.75 344.608L194 345.051V331.95V318.849H211.928C239.675 318.849 253.485 316.266 270.5 307.893C290.193 298.202 302.162 286.375 311.424 267.451C319.412 251.133 320.448 246.088 320.476 223.349C320.489 212.899 320.279 202.574 320.008 200.405L319.517 196.462L332.508 190.84C348.547 183.9 360.171 177.477 370.142 170.045C401.021 147.029 417.947 118.419 422.168 82.1044C423.107 74.0294 423.101 68.3714 422.143 56.1514C421.469 47.5574 420.685 40.1484 420.4 39.6874C419.758 38.6494 418.419 38.7254 409 40.3394ZM375.613 96.3264C373.272 119.17 357.63 144.243 335.5 160.622C330.207 164.54 321.019 169.849 319.533 169.849C317.134 169.849 323.933 148.734 330.158 136.849C336.576 124.598 345.541 113.149 355.372 104.649C362.418 98.5574 374.41 89.8494 375.752 89.8494C376.04 89.8494 375.978 92.7644 375.613 96.3264Z" />
  </symbol>
</svg>
