<svg width="512" height="512" fill="none" xmlns="http://www.w3.org/2000/svg">
    <path d="M203.653 463.65c-36.784-9.113-71.279-27.666-98.437-53.267-7.667-7.229-15.785-16.448-24.354-27.658-8.296-10.858-15.514-22.957-21.654-36.299-7.1-15.424-12.535-31.586-15.491-47.942a996.807 996.807 0 0 1-1.687-9.585c-.828-4.815-1.402-9.927-1.721-15.334-1.245-21.044.028-41.186 3.817-60.427 5.747-29.194 17.99-57.631 35.994-81.745 19.757-26.465 44.088-47.578 72.993-63.338 4.363-2.377 8.511-4.447 12.444-6.208 16.595-7.43 33.432-12.873 51.207-16.16 23.736-4.399 47.036-4.748 69.898-1.05 9.675 1.564 19.697 3.482 28.872 6.27 35.383 10.741 66.217 28.914 92.503 54.517 13.575 13.221 25.367 28.268 35.375 45.141 2.397 4.05 4.6 8.183 6.608 12.4 18.795 39.487 25.198 81.159 19.211 125.016a167.481 167.481 0 0 1-2.408 13.492c-5.24 23.85-13.888 46.211-27.02 66.919-13.582 21.416-30.059 39.913-50.256 55.296-22.663 17.257-47.089 29.674-73.277 37.251-14.557 4.212-29.106 6.974-43.649 8.285-9.379.848-20.433.895-33.162.139-11.165-.662-23.1-2.567-35.806-5.713Zm52.221-155.045a11.74 11.74 0 0 1 .61-3.079c2.536-7.41 5.853-13.752 9.953-19.025 7.149-9.194 15.833-15.963 26.055-20.305 3.733-1.584 6.771-1.065 9.112 1.557 1.541 1.724 2.207 3.854 1.999 6.388-.236 2.841-1.816 4.998-4.74 6.472-9.175 4.629-16.465 11.53-21.87 20.7-4.539 7.709-6.739 17.726-6.78 26.623-.047 9.616-.01 19.751.111 30.404.125 11.226 1.2 24.357 3.04 34.367 1.369 7.479 3.646 15.139 6.829 22.98 1.522 3.754 3.234 7.125 5.136 10.114.106.167.254.229.444.188a350.051 350.051 0 0 0 8.835-1.968c11.438-2.692 22.282-6.26 32.53-10.704a131.148 131.148 0 0 0 12.313-6.124c9.217-5.195 16.803-10.112 22.758-14.751 27.165-21.152 48.805-50.228 59.251-83.211 5.628-17.774 8.745-36.744 8.307-55.408-.314-13.211-1.628-24.98-3.942-35.304-5.344-23.85-15.609-46.225-30.85-65.911-8.898-11.497-20.961-23.807-33.627-33.004-10.087-7.322-20.023-13.406-29.809-18.253-9.634-4.773-20.854-8.856-33.662-12.248-18.357-4.859-37.298-7.056-55.433-5.401-18.518 1.682-36.836 6.265-54.955 13.75-15.015 6.204-29.104 14.659-42.268 25.364-9.265 7.542-18.336 16.39-26.262 26.31-11.681 14.618-20.947 30.112-27.04 47.052-1.902 5.287-3.524 10.257-4.866 14.91-4.322 14.987-6.346 31.389-6.073 49.207.576 37.758 14.249 74.425 38.096 103.502a245.506 245.506 0 0 0 9.134 10.531c5.386 5.843 11.563 11.432 18.531 16.766 13.705 10.501 28.146 18.856 43.323 25.066 7.183 2.94 14.839 5.227 22.334 7.312 3.651 1.015 7.711 1.805 12.181 2.371.624.078 1.076-.144 1.353-.668a105.37 105.37 0 0 0 9.495-24.363c2.679-10.643 3.692-21.389 4.608-32.365.301-3.596.454-7.062.458-10.399.024-9.833.01-20.216-.041-31.148-.028-7.011-1.078-13.174-3.151-18.49-3.558-9.138-9.879-17.074-18.962-23.807-5.261-3.907-12.895-5.346-10.66-14.139 1.499-5.894 7.662-5.665 12.132-3.496 6.279 3.045 12.252 7.201 17.92 12.47 8.461 7.876 13.506 17.454 17.324 28.514.106.31.289.57.548.778a.163.163 0 0 0 .174.022.17.17 0 0 0 .097-.147Z" fill="#22313E"/>
    <path d="M255.741 308.146a.17.17 0 0 1-.097.146.17.17 0 0 1-.174-.021 1.683 1.683 0 0 1-.55-.779c-3.825-11.059-8.882-20.637-17.361-28.513-5.68-5.268-11.666-9.425-17.959-12.47-4.479-2.168-10.655-2.398-12.158 3.497-2.239 8.793 5.412 10.231 10.684 14.138 9.102 6.733 15.436 14.669 19.002 23.807 2.077 5.315 3.13 11.478 3.158 18.489.051 10.932.065 21.314.042 31.148a126.61 126.61 0 0 1-.46 10.398c-.918 10.976-1.933 21.722-4.618 32.364a105.19 105.19 0 0 1-9.515 24.363c-.278.524-.73.746-1.356.667-4.48-.565-8.548-1.355-12.207-2.37-7.512-2.085-15.184-4.372-22.383-7.312-15.209-6.21-29.681-14.565-43.415-25.065-6.984-5.334-13.174-10.923-18.571-16.766a245.476 245.476 0 0 1-9.154-10.531c-23.899-29.076-37.6-65.742-38.178-103.5-.274-17.817 1.755-34.219 6.086-49.205 1.344-4.653 2.97-9.623 4.876-14.91 6.106-16.94 15.392-32.433 27.098-47.051 7.943-9.919 17.034-18.768 26.319-26.31 13.192-10.704 27.312-19.159 42.359-25.364 18.158-7.483 36.516-12.066 55.073-13.749 18.175-1.654 37.156.543 55.553 5.401 12.835 3.392 24.08 7.475 33.734 12.248 9.807 4.847 19.765 10.931 29.874 18.253 12.693 9.196 24.782 21.506 33.699 33.003 15.274 19.685 25.561 42.06 30.917 65.909 2.318 10.325 3.635 22.093 3.95 35.304.438 18.663-2.685 37.633-8.325 55.406-10.468 32.982-32.155 62.058-59.379 83.21-5.968 4.639-13.57 9.555-22.807 14.75a131.69 131.69 0 0 1-12.339 6.124c-10.271 4.444-21.137 8.012-32.6 10.704-3.033.714-5.984 1.37-8.854 1.967-.19.042-.339-.02-.445-.187-1.906-2.989-3.622-6.36-5.147-10.114-3.191-7.841-5.472-15.501-6.845-22.98-1.843-10.009-2.921-23.14-3.046-34.365a1875.297 1875.297 0 0 1-.111-30.404c.041-8.897 2.246-18.913 6.795-26.622 5.416-9.171 12.722-16.071 21.917-20.7 2.93-1.474 4.514-3.631 4.75-6.471.209-2.535-.459-4.664-2.003-6.388-2.346-2.623-5.39-3.142-9.132-1.557-10.243 4.342-18.947 11.11-26.111 20.304-4.108 5.273-7.433 11.615-9.974 19.024a11.71 11.71 0 0 0-.612 3.08Zm6.174-205.009a6.549 6.549 0 0 0-6.53-6.57l-.612-.003a6.556 6.556 0 0 0-6.067 4.021 6.547 6.547 0 0 0-.507 2.504l-.065 18.406a6.557 6.557 0 0 0 1.903 4.637 6.554 6.554 0 0 0 4.626 1.934l.612.002a6.54 6.54 0 0 0 2.509-.49 6.533 6.533 0 0 0 2.131-1.412 6.532 6.532 0 0 0 1.935-4.623l.065-18.406Zm-65.892 14.432a6.814 6.814 0 0 0-4.119-3.216 6.822 6.822 0 0 0-5.189.637l-.29.164a6.82 6.82 0 0 0-3.416 6.773 6.83 6.83 0 0 0 .834 2.529l16.016 28.289a6.847 6.847 0 0 0 1.739 2.018 6.841 6.841 0 0 0 7.569.562l.29-.165a6.82 6.82 0 0 0 3.416-6.772 6.81 6.81 0 0 0-.834-2.53l-16.016-28.289Zm130.558 7.473a6.905 6.905 0 0 0-2.415-9.468l-.311-.185a6.92 6.92 0 0 0-9.475 2.414l-16.676 28.067a6.905 6.905 0 0 0 2.415 9.468l.311.185a6.92 6.92 0 0 0 9.475-2.414l16.676-28.067ZM172.777 165.66a6.7 6.7 0 0 0 1.854-4.777 6.687 6.687 0 0 0-2.068-4.687l-13.899-13.274a6.709 6.709 0 0 0-7.331-1.285 6.683 6.683 0 0 0-2.139 1.5l-.318.332a6.693 6.693 0 0 0 .215 9.464l13.899 13.273a6.711 6.711 0 0 0 4.78 1.853 6.7 6.7 0 0 0 4.69-2.068l.317-.331Zm100.693 24.166c3.944-9.133 1.426-19.156-3.401-27.678-4.21-7.442-8.938-14.308-14.182-20.596-.501-.602-.997-.6-1.489.007-4.748 5.871-9.257 12.454-13.528 19.748-6.128 10.489-8.833 24.119-.083 34.198 4.219 4.861 9.229 7.123 15.03 6.784 7.881-.458 14.572-5.317 17.653-12.463Zm87.388-46.44a6.878 6.878 0 0 0-4.825-2.118 6.885 6.885 0 0 0-4.911 1.914l-13.012 12.47a6.89 6.89 0 0 0-2.118 4.823 6.88 6.88 0 0 0 1.914 4.907l.347.361a6.886 6.886 0 0 0 9.736.204l13.012-12.471a6.865 6.865 0 0 0 2.119-4.822 6.885 6.885 0 0 0-1.915-4.907l-.347-.361Zm-157.346 40.706c-6.695-2.91-13.892-5.38-21.589-7.41-.255-.065-.383.035-.383.299.093 6.603.598 14.078 1.517 22.424.797 7.28 2.976 13.668 6.538 19.164 5.571 8.598 16.867 14.02 26.813 10.94 7.435-2.307 10.774-8.862 10.697-16.314-.132-13.721-11.873-24.008-23.593-29.103Zm100.847 1.188c-5.003 2.586-9.274 5.665-12.812 9.238-8.193 8.286-12.45 26.157-.187 33.483 5.23 3.121 12.304 2.669 17.903.5 13.939-5.4 17.959-20.338 18.967-33.705.441-5.774.687-11.619.738-17.537.004-.51-.239-.697-.731-.563a261.796 261.796 0 0 0-13.542 4.101c-3.144 1.052-6.589 2.546-10.336 4.483Zm-149.022 26.75a6.605 6.605 0 0 0-.99-7.27 6.62 6.62 0 0 0-2.052-1.559l-34.071-16.607a6.615 6.615 0 0 0-7.275.989 6.623 6.623 0 0 0-1.561 2.051l-.384.787a6.615 6.615 0 0 0-.309 5.045 6.613 6.613 0 0 0 3.352 3.785l34.07 16.607a6.615 6.615 0 0 0 7.275-.989 6.623 6.623 0 0 0 1.561-2.051l.384-.788Zm245.917-21.946a6.831 6.831 0 0 0-9.117-3.191l-33.919 16.314a6.825 6.825 0 0 0-3.192 9.111l.144.3a6.83 6.83 0 0 0 9.117 3.191l33.919-16.314a6.826 6.826 0 0 0 3.193-9.111l-.145-.3ZM277.379 246.47a21.941 21.941 0 0 0-6.433-15.522 21.971 21.971 0 0 0-15.532-6.429 21.97 21.97 0 0 0-15.532 6.429 21.945 21.945 0 0 0 0 31.044 21.974 21.974 0 0 0 35.825-7.122 21.936 21.936 0 0 0 1.672-8.4Zm-129.76 15.994c9.049 11.08 21.165 18.552 35.73 13.971 3.904-1.228 7.178-3.301 9.821-6.221 2.161-2.386 2.972-5.296 2.434-8.73-1.537-9.808-8.938-17.746-18.279-20.658-4.943-1.544-10.06-2.104-15.35-1.683-8.685.691-17.625 2.781-26.821 6.27a.63.63 0 0 0-.379.416.622.622 0 0 0 .108.557 703.096 703.096 0 0 0 12.736 16.078Zm177.238 13.228c10.099 4.379 21.444 1.501 29.901-5.207 2.991-2.372 5.987-5.354 8.987-8.946a239.485 239.485 0 0 0 11.191-14.492 1.08 1.08 0 0 0 .162-.932 1.101 1.101 0 0 0-.635-.709c-7.285-3.03-14.537-4.995-21.756-5.894-11.074-1.383-21.534-.125-29.992 7.215-4.048 3.512-6.631 8.137-7.749 13.874-1.446 7.424 3.638 12.387 9.891 15.091Zm89.165-25.327a6.088 6.088 0 0 0-3.746-5.645 6.107 6.107 0 0 0-2.333-.472l-17.277-.06a6.102 6.102 0 0 0-4.32 1.77 6.089 6.089 0 0 0-1.801 4.304l-.006 1.766a6.089 6.089 0 0 0 1.771 4.316 6.108 6.108 0 0 0 4.307 1.801l17.277.06a6.102 6.102 0 0 0 4.32-1.77 6.09 6.09 0 0 0 1.801-4.304l.007-1.766Zm-288.184.263a6.24 6.24 0 0 0-6.207-6.268l-17.305-.09a6.24 6.24 0 0 0-6.271 6.202l-.007 1.376a6.235 6.235 0 0 0 6.206 6.268l17.305.09a6.24 6.24 0 0 0 4.421-1.803 6.229 6.229 0 0 0 1.85-4.399l.008-1.376Zm280.919 55.108a6.82 6.82 0 0 0-4.002-8.776l-27.884-10.418a6.822 6.822 0 0 0-8.78 3.999l-.176.469a6.814 6.814 0 0 0 4.002 8.775l27.884 10.418a6.824 6.824 0 0 0 8.781-3.999l.175-.468Zm-263.369-14.529a6.903 6.903 0 0 0-1.404-2.302 6.901 6.901 0 0 0-4.799-2.227 6.916 6.916 0 0 0-2.666.415l-26.689 9.76a6.908 6.908 0 0 0-4.116 8.863l.143.392a6.917 6.917 0 0 0 8.869 4.114l26.688-9.76a6.915 6.915 0 0 0 4.532-6.2 6.903 6.903 0 0 0-.415-2.663l-.143-.392Zm48.196 39.244c8.601 3.541 17.217 3.091 25.846-1.348 2.358-1.21 4.793-2.593 6.893-4.254.798-.635 1.104-1.571.918-2.808-.477-3.165-1.201-6.154-2.17-8.967-4.124-11.97-15.81-18.886-28.149-19.421-3.264-.144-6.614.048-10.05.577-7.953 1.232-15.532 3.542-22.737 6.93a.561.561 0 0 0-.195.862c3.524 4.356 6.818 8.417 9.883 12.185 5.467 6.714 11.853 12.991 19.761 16.244Zm152.31-31.154c-12.276-5.206-25.895-7.577-38.54-3.601-11.915 3.74-18.07 13.513-19.385 25.9-.132 1.244-.209 2.231.946 3.065 2.601 1.868 5.189 3.469 7.762 4.803 6.212 3.218 13.591 4.261 20.484 2.28 3.979-1.14 7.111-2.486 9.397-4.038 4.419-2.999 8.08-6.222 10.983-9.669a4646.137 4646.137 0 0 1 13.083-15.466.68.68 0 0 0-.105-.98c-1.432-1.085-2.984-1.599-4.625-2.294Zm-188.903 15.706a6.927 6.927 0 0 0-9.436-2.633l-26.59 14.973a6.917 6.917 0 0 0-2.635 9.43l.184.327a6.933 6.933 0 0 0 9.437 2.633l26.59-14.973a6.93 6.93 0 0 0 3.476-6.863 6.905 6.905 0 0 0-.842-2.567l-.184-.327Zm238.982 21.887a6.824 6.824 0 0 0-2.695-9.27l-27.403-15.056a6.835 6.835 0 0 0-9.276 2.693l-.174.317a6.826 6.826 0 0 0 2.694 9.27l27.404 15.056a6.834 6.834 0 0 0 9.276-2.694l.174-.316Z" fill="#fff"/>
    <path d="m255.66 96.484-.612-.003a6.553 6.553 0 0 0-6.576 6.531l-.065 18.421a6.554 6.554 0 0 0 6.531 6.576l.612.002a6.553 6.553 0 0 0 6.576-6.53l.064-18.421a6.553 6.553 0 0 0-6.53-6.576ZM186.977 114.922l-.29.164a6.831 6.831 0 0 0-2.582 9.31l16.018 28.312a6.831 6.831 0 0 0 9.31 2.582l.291-.164a6.832 6.832 0 0 0 2.581-9.31l-16.018-28.312a6.831 6.831 0 0 0-9.31-2.582ZM324.453 115.507l-.311-.185a6.916 6.916 0 0 0-9.477 2.415l-16.678 28.091a6.914 6.914 0 0 0 2.415 9.476l.311.185a6.915 6.915 0 0 0 9.476-2.416l16.679-28.09a6.914 6.914 0 0 0-2.415-9.476ZM172.822 156.162l-13.902-13.284a6.698 6.698 0 0 0-9.471.215l-.318.331a6.7 6.7 0 0 0 .215 9.472l13.902 13.285a6.7 6.7 0 0 0 9.472-.215l.317-.332a6.7 6.7 0 0 0-.215-9.472ZM273.96 189.66c-3.111 7.196-9.866 12.089-17.822 12.551-5.856.34-10.914-1.937-15.174-6.832-8.834-10.15-6.103-23.876.084-34.439 4.311-7.345 8.864-13.974 13.658-19.886.496-.612.997-.614 1.502-.007 5.295 6.332 10.068 13.245 14.318 20.74 4.873 8.582 7.415 18.675 3.434 27.873ZM351.415 143.137 338.4 155.618a6.887 6.887 0 0 0-.204 9.738l.347.361a6.886 6.886 0 0 0 9.737.204l13.015-12.48a6.887 6.887 0 0 0 .204-9.738l-.347-.362a6.887 6.887 0 0 0-9.737-.204ZM203.696 184.064c11.603 5.063 23.226 15.285 23.357 28.92.076 7.405-3.229 13.919-10.59 16.212-9.847 3.06-21.03-2.328-26.545-10.872-3.526-5.462-5.683-11.809-6.473-19.044-.909-8.293-1.409-15.721-1.501-22.283 0-.262.126-.361.379-.297 7.62 2.017 14.745 4.472 21.373 7.364ZM304.785 185.276c3.733-1.93 7.165-3.419 10.298-4.467a261.485 261.485 0 0 1 13.493-4.086c.49-.134.733.053.728.561a259.008 259.008 0 0 1-.735 17.472c-1.005 13.316-5.01 28.198-18.899 33.579-5.579 2.16-12.627 2.61-17.838-.499-12.218-7.299-7.977-25.103.187-33.357 3.525-3.56 7.78-6.627 12.766-9.203ZM152.55 203.206l-34.077-16.621a6.61 6.61 0 0 0-8.837 3.043l-.384.788a6.608 6.608 0 0 0 3.043 8.837l34.077 16.621a6.609 6.609 0 0 0 8.837-3.043l.384-.788a6.609 6.609 0 0 0-3.043-8.837ZM392.437 186.885l-33.925 16.327a6.831 6.831 0 0 0-3.193 9.119l.144.3a6.833 6.833 0 0 0 9.119 3.194l33.925-16.328a6.83 6.83 0 0 0 3.193-9.118l-.145-.301a6.832 6.832 0 0 0-9.118-3.193ZM256 268.405c12.249 0 22.179-9.93 22.179-22.179 0-12.249-9.93-22.179-22.179-22.179-12.249 0-22.179 9.93-22.179 22.179 0 12.249 9.93 22.179 22.179 22.179ZM183.683 276.798c-14.717 4.616-26.96-2.913-36.103-14.078a712.475 712.475 0 0 1-12.868-16.201.64.64 0 0 1-.11-.562.624.624 0 0 1 .384-.419c9.291-3.516 18.324-5.622 27.1-6.318 5.346-.424 10.516.141 15.511 1.696 9.439 2.934 16.916 10.933 18.47 20.816.543 3.46-.277 6.393-2.46 8.798-2.671 2.941-5.979 5.031-9.924 6.268ZM325.238 276.073c-6.302-2.727-11.427-7.733-9.969-15.22 1.127-5.787 3.73-10.451 7.81-13.994 8.524-7.404 19.068-8.673 30.228-7.278 7.277.907 14.586 2.889 21.928 5.946a1.096 1.096 0 0 1 .64.714 1.094 1.094 0 0 1-.163.94 241.242 241.242 0 0 1-11.28 14.618c-3.023 3.622-6.043 6.63-9.057 9.023-8.524 6.766-19.958 9.668-30.137 5.251ZM408.246 244.287l-17.281-.06a6.101 6.101 0 0 0-6.122 6.08l-.006 1.767a6.101 6.101 0 0 0 6.08 6.122l17.28.06a6.1 6.1 0 0 0 6.122-6.08l.006-1.767a6.1 6.1 0 0 0-6.079-6.122ZM119.881 244.4l-17.308-.091a6.24 6.24 0 0 0-6.273 6.208l-.007 1.377a6.24 6.24 0 0 0 6.207 6.273l17.308.09a6.24 6.24 0 0 0 6.273-6.207l.007-1.377a6.24 6.24 0 0 0-6.207-6.273ZM403.057 297.043l-27.889-10.427a6.825 6.825 0 0 0-8.783 4.002l-.175.47a6.824 6.824 0 0 0 4.002 8.782l27.89 10.427a6.824 6.824 0 0 0 8.782-4.002l.175-.469a6.825 6.825 0 0 0-4.002-8.783ZM134.771 287.168l-26.694 9.768a6.916 6.916 0 0 0-4.117 8.871l.143.392a6.916 6.916 0 0 0 8.871 4.117l26.694-9.769a6.915 6.915 0 0 0 4.117-8.87l-.143-.392a6.916 6.916 0 0 0-8.871-4.117ZM191.614 330.713c-7.961-3.244-14.389-9.504-19.893-16.201a5696.183 5696.183 0 0 1-9.95-12.152.56.56 0 0 1 .196-.859c7.254-3.379 14.884-5.683 22.89-6.912 3.459-.527 6.832-.719 10.118-.575 12.422.533 24.186 7.431 28.338 19.369.976 2.805 1.704 5.786 2.185 8.942.187 1.234-.122 2.168-.924 2.801-2.115 1.657-4.566 3.036-6.94 4.242-8.687 4.428-17.36 4.876-26.02 1.345ZM343.997 299.569c1.629.695 3.168 1.21 4.59 2.296a.675.675 0 0 1 .234.74.687.687 0 0 1-.131.242 4655.46 4655.46 0 0 0-12.982 15.485c-2.88 3.452-6.512 6.679-10.897 9.681-2.269 1.554-5.376 2.902-9.324 4.043-6.84 1.984-14.162.94-20.325-2.282-2.554-1.337-5.121-2.94-7.702-4.81-1.146-.835-1.07-1.823-.939-3.069 1.304-12.402 7.412-22.187 19.235-25.932 12.547-3.981 26.06-1.607 38.241 3.606ZM145.809 312.466l-26.595 14.985a6.928 6.928 0 0 0-2.635 9.438l.184.327a6.928 6.928 0 0 0 9.438 2.635l26.595-14.985a6.928 6.928 0 0 0 2.635-9.438l-.184-.327a6.928 6.928 0 0 0-9.438-2.635ZM391.578 327.728l-27.409-15.068a6.83 6.83 0 0 0-9.277 2.696l-.175.317a6.83 6.83 0 0 0 2.696 9.277l27.408 15.068a6.832 6.832 0 0 0 9.278-2.695l.174-.317a6.832 6.832 0 0 0-2.695-9.278Z" fill="#22313E"/>
</svg>
